# xmcd
#
# Track frame offsets: 
#        183
#        13663
#        26433
#        39028
#        50028
#        59785
#        72233
#        84970
#        96393
#        108463
#        121988
#        134573
#        147175
#        160353
#        173958
#        184678
#        197520
#        211290
#        222395
#        235475
#        248378
#        260463
#
# Disc length: 3657 seconds
#
# Revision: 3
# Processed by: cddbd v1.5.1PL0 Copyright (c) Steve Scherf et al.
# Submitted via: ExactAudioCopy v0.90b4
#
DISCID=400e4716
DTITLE=Various Artist - An Hour Of Blues and Soul Giants
DYEAR=1989
DGENRE=Blues
TTITLE0=John Lee Hooker - Hobo Blues
TTITLE1=Muddy Waters - I'm Your Hoochie Coochie Man
TTITLE2=BB King - Ten Long Years
TTITLE3=Jimmy Reed - Baby What You Want Me To Do
TTITLE4=The Drifters - There Goes My Baby
TTITLE5=Sam Cooke - You Send Me
TTITLE6=Muddy Waters - I Just Want To Make Love To You
TTITLE7=John Lee Hooker - Boom Boom Boom
TTITLE8=Jimmy Reed - Honest I Do
TTITLE9=BB King - Sneakin Around
TTITLE10=Ike and Tina Turner - A Fool In Love
TTITLE11=Percy Sledge - When A Man Loves A Woman
TTITLE12=Ben E King - Stand By Me
TTITLE13=Muddy Waters - I'm Ready
TTITLE14=John Lee Hookeer - No Shoes
TTITLE15=Jimmy Reed - You Got Me Dizzy
TTITLE16=BB King - You Upset Me Baby
TTITLE17=The Drifters - Save The Last Dance For Me
TTITLE18=Ben E King - Spanish Harlem
TTITLE19=Muddy Waters - Mannish Boy
TTITLE20=John Lee Hooker - I'm A Starnger
TTITLE21=BB King - You Know I Love You
EXTD=
EXTT0=
EXTT1=
EXTT2=
EXTT3=
EXTT4=
EXTT5=
EXTT6=
EXTT7=
EXTT8=
EXTT9=
EXTT10=
EXTT11=
EXTT12=
EXTT13=
EXTT14=
EXTT15=
EXTT16=
EXTT17=
EXTT18=
EXTT19=
EXTT20=
EXTT21=
PLAYORDER=
